<?xml version="1.0" encoding="UTF-8" standalone="no"?>
<svg
   xmlns:svg="http://www.w3.org/2000/svg"
   xmlns="http://www.w3.org/2000/svg"
   version="1.1"
   id="svg3999"
   viewBox="0 0 1261.608 432.29188"
   height="432.29187"
   width="1261.608">
  <defs
     id="defs4001" />
  <g
     transform="translate(285.08971,-256.21627)"
     id="layer1">
    <path
       d="m 942.04329,261.21627 -1192.6721,0 c -16.25722,0 -29.4609,13.19661 -29.4609,29.46091 l 0,363.37005 c 0,16.25017 13.20368,29.46091 29.4609,29.46091 l 1192.6721,0 c 16.2642,0 29.475,-13.21074 29.475,-29.46091 l 0,-363.37005 c 0,-16.2643 -13.2108,-29.46091 -29.475,-29.46091 M -250.62881,668.7777 c -8.1286,0 -14.73045,-6.60185 -14.73045,-14.73047 l 0,-181.68502 359.553146,0 c 24.385834,0 44.191364,19.80554 44.191364,44.19844 l 0,108.01861 c 0,24.3929 19.80554,44.19844 44.19844,44.19844 l -433.2125,0 z m 1207.4096,-196.41549 -774.1971,0 c -24.3929,0 -44.19844,-19.80554 -44.19844,-44.19136 l 0,-108.03983 c 0,-24.38584 -19.80553,-44.19136 -44.191364,-44.19136 l 847.849404,0 c 8.1356,0 14.7375,6.60891 14.7375,14.73752"
       style="fill:#000000;fill-opacity:1;fill-rule:nonzero;stroke:none"
       id="path130" />
    <path
       id="path132"
       d="m 94.194336,275.94642 c 24.385834,0 44.191404,19.79971 44.191404,44.18555 l 0,108.03906 c 0,24.38582 19.79851,44.1914 44.19141,44.1914 l 774.20314,0 0,-181.68554 c 0,-8.12861 -6.6019,-14.73047 -14.7305,-14.73047 l -847.855454,0 z m -275.382826,64.62695 c -15.41608,0 -24.83203,9.02638 -24.83203,19.92578 0,24.62617 37.67384,16.67344 37.67384,28.06055 0,3.83812 -3.62492,7.26562 -11.37891,7.26562 -9.01923,0 -16.19416,-4.12004 -20.80274,-8.93359 l -7.6543,10.89844 c 6.17774,6.18481 15.20386,10.40625 27.86328,10.40625 17.57901,0 26.21681,-9.03404 26.21681,-21.00781 0,-24.42826 -37.59766,-17.46582 -37.59767,-27.77149 0,-3.92293 3.33741,-6.47461 9.23243,-6.47461 6.67253,0 13.73389,2.25397 19.03516,7.15235 l 7.7461,-10.39063 c -6.47462,-5.99396 -15.10441,-9.13086 -25.50197,-9.13086 z m 85.173836,0.98242 0,65.45313 12.55274,0 0,-31.98438 c 2.07102,-2.75666 5.89412,-5.50781 10.80664,-5.50781 5.2942,0 8.73047,2.07171 8.73047,8.65235 l 0,28.83984 12.46875,0 0,-33.66016 c 0,-9.21713 -5.01847,-14.92187 -15.41602,-14.92187 -7.75399,0 -13.54338,3.7322 -16.58984,7.27344 l 0,-24.14454 -12.55274,0 z m 110.29297,0 0,53.5918 c 0,8.52444 4.60848,13.04102 13.33789,13.04102 5.11043,0 8.54607,-1.37213 10.41211,-3.03321 l -2.65039,-9.52734 c -0.68564,0.79165 -2.45231,1.47656 -4.31836,1.47656 -2.74251,0 -4.31836,-2.26138 -4.31836,-5.30078 l 0,-50.24805 -12.46289,0 z m -136.404296,16.8711 c -14.5184,0 -25.12109,10.30655 -25.12109,24.83203 0,14.62442 10.60269,24.9375 25.12109,24.9375 9.72607,0 15.61482,-4.31163 18.7461,-8.64453 l -8.13672,-7.65625 c -2.26188,3.25143 -5.69611,5.21679 -10.00781,5.21679 -7.56315,0 -12.86524,-5.60474 -12.86524,-13.85351 0,-8.23464 5.30209,-13.74219 12.86524,-13.74219 4.3117,0 7.74593,1.77582 10.00781,5.11914 l 8.13672,-7.66211 c -3.13128,-4.31877 -9.02003,-8.54687 -18.7461,-8.54687 z m 188.513676,0 c -14.32757,0 -24.53516,11.09114 -24.53516,24.83203 0,15.21817 10.89231,24.9375 25.30469,24.9375 7.37936,0 14.83618,-2.25621 19.55078,-6.58203 l -5.59766,-8.24805 c -3.04646,2.95457 -8.53233,4.62891 -12.56836,4.62891 -8.04378,0 -12.75829,-4.81333 -13.63476,-10.60938 l 35.23633,0 0,-2.93945 c 0,-15.41609 -9.52726,-26.01953 -23.75586,-26.01953 z m -107.25586,1.18164 0,33.66601 c 0,9.21714 4.90471,14.92188 15.3164,14.92188 7.74693,0 13.44406,-3.64086 16.6601597,-7.16797 l 0,5.98047 12.47656,0 0,-47.40039 -12.47656,0 0,32.0957 c -2.1487797,2.74959 -5.9728097,5.4082 -10.7792997,5.4082 -5.30126,0 -8.73633,-2.16936 -8.73633,-8.75 l 0,-28.7539 -12.46093,0 z m 107.25586,9.0332 c 8.2417,0 11.38662,5.59 11.77539,10.09961 l -23.36133,0 c 0.49479,-4.70046 3.84609,-10.09961 11.58594,-10.09961 z m -331.746106,103.7207 0,181.68555 c 0,8.12155 6.60066,14.73047 14.73633,14.73047 l 433.20509,0 c -24.3929,0 -44.19727,-19.80632 -44.19727,-44.19922 l 0,-108.01953 c 0,-24.3929 -19.80557,-44.19727 -44.191404,-44.19727 l -359.552746,0 z M 280.49512,535.964 c -4.00776,0 -7.35157,3.23657 -7.35157,7.35742 0,4.12085 3.34381,7.46484 7.35157,7.46484 4.12791,0 7.4707,-3.34399 7.4707,-7.46484 0,-4.12085 -3.34279,-7.35742 -7.4707,-7.35742 z m 115.05859,0.77734 c -19.74194,0 -34.94726,13.64071 -34.94726,33.86328 0,20.12361 15.20532,33.85742 34.94726,33.85742 14.32049,0 22.66803,-7.94393 27.26953,-16.09375 l -11.96679,-5.78125 c -2.74959,5.30127 -8.64435,9.50586 -15.30274,9.50586 -11.98087,0 -20.61914,-9.11865 -20.61914,-21.48828 0,-12.36962 8.63827,-21.48633 20.61914,-21.48633 6.65839,0 12.55315,4.21166 15.30274,9.50586 l 11.96679,-5.87304 c -4.6015,-8.24877 -12.94904,-16.00977 -27.26953,-16.00977 z m -93.75586,6.19141 0,12.94921 -7.85156,0 0,10.89844 7.85156,0 0,24.64063 c 0,8.53856 4.60215,13.04101 13.3457,13.04101 5.20231,0 8.53946,-1.37799 10.39844,-3.03906 l -2.64453,-9.52148 c -0.6927,0.79166 -2.43939,1.4707 -4.3125,1.4707 -2.75666,0 -4.33203,-2.25358 -4.33203,-5.29297 l 0,-21.29883 9.64062,0 0,-10.89844 -9.64062,0 0,-12.94921 -12.45508,0 z m -81.75195,11.76953 c -7.25921,0 -13.42898,4.51603 -15.5,7.26562 l 0,-6.08594 -12.46875,0 0,47.40821 12.46875,0 0,-31.99219 c 1.87311,-2.55875 5.48424,-5.5 9.82422,-5.5 5.08921,0 7.05468,3.13892 7.05468,7.55664 l 0,29.93555 12.56055,0 0,-31.99219 c 1.77416,-2.55875 5.40017,-5.5 9.83203,-5.5 5.08922,0 7.05274,3.13892 7.05274,7.55664 l 0,29.93555 12.57617,0 0,-34.25391 c 0,-9.71192 -5.21785,-14.33398 -13.94727,-14.33398 -7.27334,0 -13.54924,4.33218 -16.29883,8.54492 -1.66813,-5.30126 -6.17783,-8.54492 -13.15429,-8.54492 z m 350.35742,0 c -5.8738,0 -11.67732,3.44946 -15.10547,7.57031 l 0,-6.39063 -12.46094,0 0,47.40821 12.46094,0 0,-31.30664 c 2.04983,-3.04647 7.5632,-5.40039 11.66992,-5.40039 1.48435,0 2.55908,0.10017 3.43555,0.29101 l 0,-12.17187 z m 25.7207,0 c -12.07982,0 -21.01367,9.42887 -21.01367,24.83789 0,15.89673 9.13177,24.92969 21.01367,24.92968 5.78899,0 10.88585,-2.55103 14.625,-7.26562 l 0,6.08594 12.56055,0 0,-47.40821 -12.56055,0 0,6.08594 c -3.82397,-4.90544 -9.02686,-7.26562 -14.625,-7.26562 z m 57.21289,0 c -11.97378,0 -20.90234,8.63729 -20.90234,24.15234 0,15.79778 9.11939,24.04688 20.90234,24.04688 5.88088,0 10.99057,-2.64479 14.72266,-7.35938 l 0,4.60156 c 0,9.62003 -7.15958,12.17188 -13.14648,12.17188 -5.88795,0 -10.99903,-1.66746 -14.83008,-5.78125 l -5.5918,8.92773 c 5.9869,5.19524 12.37809,7.06836 20.42188,7.06836 11.67692,0 25.60742,-4.42603 25.60742,-22.38672 l 0,-44.26172 -12.46094,0 0,6.08594 c -3.83811,-4.90544 -9.02556,-7.26562 -14.72266,-7.26562 z m -199.79492,0.006 c -15.59986,0 -25.02148,11.38802 -25.02148,24.83203 0,13.45109 9.42162,24.92969 25.02148,24.92968 15.69883,0 25.11328,-11.4786 25.11328,-24.92968 0,-13.44401 -9.41445,-24.83203 -25.11328,-24.83203 z m 260.53321,0 c -14.32049,0 -24.53516,11.09114 -24.53516,24.83203 0,15.2111 10.89965,24.92969 25.32617,24.92968 7.36518,0 14.81588,-2.26253 19.52348,-6.57421 l -5.584,-8.24805 c -3.0465,2.94044 -8.5394,4.60937 -12.56839,4.60937 -8.04378,0 -12.75196,-4.81425 -13.64257,-10.58203 l 35.23046,0 0,-2.96093 c 0,-15.40195 -9.5143,-26.00586 -23.74999,-26.00586 z m -226.88868,1.17382 0,33.66016 c 0,9.2242 4.92788,14.92773 15.31836,14.92773 7.75399,0 13.45141,-3.63378 16.68164,-7.16796 l 0,5.98828 12.47461,0 0,-47.40821 -12.47461,0 0,32.10352 c -2.16291,2.74253 -5.98063,5.39453 -10.78711,5.39453 -5.30833,0 -8.73632,-2.16275 -8.73632,-8.73633 l 0,-28.76172 -12.47657,0 z m -212.86914,0.008 0,47.40039 12.46875,0 0,-47.40039 -12.46875,0 z m 439.75782,9.0332 c 8.24879,0 11.38619,5.58367 11.78909,10.10742 l -23.36722,0 c 0.48771,-4.71459 3.83121,-10.10742 11.57813,-10.10742 z m -260.53321,0.875 c 7.85295,0 12.16406,6.38402 12.16407,13.74219 -10e-6,7.46419 -4.31112,13.83203 -12.16407,13.83203 -7.76105,0 -12.07226,-6.36784 -12.07226,-13.83203 0,-7.35817 4.31121,-13.74219 12.07226,-13.74219 z m 146.50586,0 c 4.12793,0 8.63015,2.35458 10.70117,5.5 l 0,16.6875 c -2.07102,3.13835 -6.57324,5.39453 -10.70117,5.39453 -7.16731,0 -12.07226,-5.59814 -12.07226,-13.83984 0,-8.14275 4.90495,-13.74219 12.07226,-13.74219 z m 57.31641,0 c 4.02896,0 8.53946,2.25627 10.69531,5.30273 l 0,15.40821 c -2.15585,3.03232 -6.66635,5.40039 -10.69531,5.40039 -7.16731,0 -12.07227,-4.91195 -12.07227,-13.05469 0,-8.14275 4.90496,-13.05664 12.07227,-13.05664 z"
       style="fill:#ffffff;fill-opacity:1;fill-rule:nonzero;stroke:none" />
    <path
       id="path136"
       d="m 658.1709,339.4347 c -4.02896,0 -7.36524,3.24439 -7.36524,7.36524 0,4.12086 3.33628,7.46484 7.36524,7.46484 4.12085,0 7.44922,-3.34398 7.44922,-7.46484 0,-4.12085 -3.32837,-7.36524 -7.44922,-7.36524 z m -417.61914,1.86524 0,65.46093 12.5664,0 0,-31.99218 c 2.04983,-2.74959 5.88874,-5.49805 10.78711,-5.49805 5.30834,0 8.74414,2.07095 8.74414,8.64453 l 0,28.8457 12.46094,0 0,-33.66601 c 0,-9.21714 -5.00358,-14.91407 -15.4082,-14.91407 -7.74692,0 -13.53753,3.73145 -16.58399,7.26563 l 0,-24.14648 -12.5664,0 z m 197.11523,0 0,65.46093 13.92383,0 0,-23.25586 10.21484,0 12.84961,23.25586 16.10938,0 -14.83008,-24.92383 c 7.06835,-1.66813 14.43359,-7.95141 14.43359,-19.4375 0,-12.16463 -8.4401,-21.0996 -22.08203,-21.0996 l -30.61914,0 z m 13.92383,12.27148 14.72461,0 c 5.50625,0 9.71875,3.33535 9.71875,8.72852 0,5.59813 -4.2125,8.9414 -9.71875,8.9414 l -14.72461,0 0,-17.66992 z m -245.08789,4.60937 c -15.614,0 -25.02149,11.38729 -25.02149,24.82422 0,13.45109 9.40749,24.93555 25.02149,24.93555 15.69175,0 25.12109,-11.48446 25.12109,-24.93555 0,-13.43693 -9.42934,-24.82422 -25.12109,-24.82422 z m 118.55078,0 c -7.67624,0 -13.54413,3.73145 -16.59766,7.26563 l 0,-6.08594 -12.46679,0 0,47.40039 12.46679,0 0,-31.99218 c 2.16999,-2.74959 5.89534,-5.49805 10.80078,-5.49805 5.30127,0 8.73633,2.26162 8.73633,8.82812 l 0,28.66211 12.56055,0 0,-33.47656 c 0,-9.21007 -5.01056,-15.10352 -15.5,-15.10352 z m 48.85547,0 c -14.32049,0 -24.52734,11.09041 -24.52734,24.82422 0,15.21818 10.88552,24.93555 25.32617,24.93555 7.35816,0 14.81665,-2.25349 19.53125,-6.57227 l -5.59961,-8.25586 c -3.05354,2.95458 -8.55279,4.62891 -12.56055,4.62891 -8.05085,0 -12.75737,-4.80551 -13.66211,-10.60156 l 35.25,0 0,-2.94922 c 0,-15.40901 -9.51506,-26.00977 -23.75781,-26.00977 z m 143.63672,0 c -12.07983,0 -21.00781,9.42813 -21.00781,24.83008 0,15.89673 9.13297,24.92969 21.00781,24.92969 5.78897,0 10.89291,-2.55103 14.625,-7.26563 l 0,6.08594 12.5664,0 0,-47.40039 -12.5664,0 0,6.08594 c -3.82398,-4.90544 -9.041,-7.26563 -14.625,-7.26563 z m 56.41992,0 c -12.56046,0 -19.4375,6.96803 -19.4375,14.91993 0,18.64632 28.06836,12.27894 28.06836,20.01171 0,2.95458 -2.54509,5.01172 -7.94531,5.01172 -5.88088,0 -12.84938,-3.2321 -16.39063,-6.56836 l -5.39453,9.01953 c 5.0044,4.6227 12.95632,7.37305 21.20508,7.37305 13.14007,0 20.59766,-6.38972 20.59766,-15.11914 0,-19.12696 -28.1543,-13.2525 -28.1543,-20.21484 0,-2.65063 2.9345,-4.61719 7.45117,-4.61719 5.79606,0 11.18931,2.54543 14.04492,5.5 l 4.99805,-8.83594 c -4.70754,-3.72502 -11.09107,-6.48047 -19.04297,-6.48047 z m 47.79688,0 c -12.56047,0 -19.44532,6.96803 -19.44532,14.91993 0,18.64632 28.07422,12.27894 28.07422,20.01171 0,2.95458 -2.54387,5.01172 -7.95117,5.01172 -5.895,0 -12.85765,-3.2321 -16.38477,-6.56836 l -5.40039,9.01953 c 5.01148,4.6227 12.95046,7.37305 21.19922,7.37305 13.14715,0 20.61719,-6.38972 20.61719,-15.11914 0,-19.12696 -28.17383,-13.2525 -28.17383,-20.21484 0,-2.65063 2.94111,-4.61719 7.46485,-4.61719 5.78192,0 11.18224,2.54543 14.04492,5.5 l 4.99609,-8.83594 c -4.70752,-3.72502 -11.09618,-6.48047 -19.04101,-6.48047 z m 72.2246,0 c -12.57461,0 -19.44531,6.96803 -19.44531,14.91993 0,18.64632 28.07422,12.27894 28.07422,20.01171 0,2.95458 -2.55141,5.01172 -7.9375,5.01172 -5.89501,0 -12.85012,-3.2321 -16.39844,-6.56836 l -5.40039,9.01953 c 5.01147,4.6227 12.96338,7.37305 21.20508,7.37305 13.14715,0 20.60547,-6.38972 20.60547,-15.11914 0,-19.12696 -28.16797,-13.2525 -28.16797,-20.21484 0,-2.65063 2.94109,-4.61719 7.46484,-4.61719 5.78898,0 11.19611,2.54543 14.02344,5.5 l 5.00977,-8.83594 c -4.71459,-3.72502 -11.08838,-6.48047 -19.03321,-6.48047 z m 58.19339,0 c -7.2734,0 -13.4512,4.50898 -15.5293,7.26563 l 0,-6.08594 -12.4551,0 0,47.40039 12.4551,0 0,-31.99218 c 1.8872,-2.55168 5.5125,-5.49805 9.8242,-5.49805 5.1033,0 7.0762,3.14598 7.0762,7.55664 l 0,29.93359 12.5527,0 0,-31.99218 c 1.7812,-2.55168 5.4155,-5.49805 9.8262,-5.49805 5.0892,0 7.0683,3.14598 7.0683,7.55664 l 0,29.93359 12.5528,0 0,-34.24609 c 0,-9.71899 -5.1881,-14.33399 -13.9317,-14.33399 -7.2663,0 -13.5497,4.32511 -16.2851,8.54493 -1.6752,-5.30127 -6.192,-8.54493 -13.1543,-8.54493 z m 127.7597,0 c -12.5534,0 -19.4316,6.96803 -19.4316,14.91993 0,18.64632 28.0703,12.27894 28.0703,20.01171 0,2.95458 -2.5529,5.01172 -7.9531,5.01172 -5.895,0 -12.8577,-3.2321 -16.3848,-6.56836 l -5.4062,9.01953 c 5.0114,4.6227 12.9551,7.37305 21.2109,7.37305 13.1542,0 20.6113,-6.38972 20.6113,-15.11914 0,-19.12696 -28.1738,-13.2525 -28.1738,-20.21484 0,-2.65063 2.9404,-4.61719 7.457,-4.61719 5.7961,0 11.1898,2.54543 14.0313,5.5 l 4.9961,-8.83594 c -4.7005,-3.72502 -11.0684,-6.48047 -19.0274,-6.48047 z m -227.95504,1.17969 0,47.40039 12.46289,0 0,-47.40039 -12.46289,0 z m 153.97074,0 0,33.66602 c 0,9.21713 4.8922,14.91406 15.2968,14.91406 7.7611,0 13.4439,-3.63305 16.6953,-7.16016 l 0,5.98047 12.461,0 0,-47.40039 -12.461,0 0,32.09766 c -2.1699,2.7496 -6.0013,5.40039 -10.8007,5.40039 -5.3013,0 -8.7364,-2.16424 -8.7364,-8.75196 l 0,-28.74609 -12.455,0 z m -432.04691,9.03321 c 8.25585,0 11.38738,5.58488 11.7832,10.10156 l -23.35351,0 c 0.48772,-4.70753 3.80926,-10.10156 11.57031,-10.10156 z m -167.40625,0.87695 c 7.85294,0 12.17187,6.38329 12.17187,13.73437 0,7.47125 -4.31893,13.85352 -12.17187,13.85352 -7.75399,0 -12.07227,-6.38227 -12.07227,-13.85352 0,-7.35108 4.31828,-13.73437 12.07227,-13.73437 z m 314.97266,0 c 4.12085,0 8.62428,2.3597 10.69531,5.49805 l 0,16.68945 c -2.07103,3.13835 -6.57446,5.40039 -10.69531,5.40039 -7.16732,0 -12.07227,-5.5989 -12.07227,-13.84766 0,-8.14275 4.90495,-13.74023 12.07227,-13.74023 z m -702.64454,167.11718 c -15.41608,0 -24.83008,9.01196 -24.83008,19.9043 0,24.64029 37.68165,16.68198 37.68165,28.07617 0,3.83105 -3.63273,7.26563 -11.38672,7.26563 -9.01216,0 -16.18832,-4.12126 -20.79689,-8.92774 l -7.66211,10.89258 c 6.18482,6.18481 15.20461,10.4043 27.8711,10.4043 17.57195,0 26.20899,-9.04109 26.20899,-21.00781 0,-24.43532 -37.5879,-17.47169 -37.5879,-27.77735 0,-3.92294 3.34178,-6.47461 9.22266,-6.47461 6.6796,0 13.74096,2.25472 19.03516,7.16016 l 7.75391,-10.4043 c -6.47461,-5.97984 -15.10514,-9.11133 -25.50977,-9.11133 z m 195.468746,0.96875 0,53.5918 c 10e-6,8.53858 4.6163,13.04688 13.34571,13.04688 5.11042,0 8.53824,-1.378 10.40429,-3.03907 l -2.65039,-9.52734 c -0.67856,0.79165 -2.44645,1.47656 -4.3125,1.47656 -2.74251,0 -4.31835,-2.26139 -4.31835,-5.30078 l 0,-50.24805 -12.46876,0 z m -110.29492,0.006 0,65.45313 12.56055,0 0,-31.99024 c 2.07102,-2.73545 5.88828,-5.5 10.80078,-5.5 5.30128,0 8.73633,2.06316 8.73633,8.63672 l 0,28.85352 12.46289,0 0,-33.66016 c 0,-9.22421 -5.0114,-14.91992 -15.41602,-14.91992 -7.75398,0 -13.53046,3.73145 -16.58398,7.26563 l 0,-24.13868 -12.56055,0 z m -26.103506,16.87305 c -14.5184,0 -25.11914,10.30535 -25.11914,24.83789 0,14.61736 10.60074,24.92969 25.11914,24.92969 9.71898,0 15.61482,-4.32576 18.74609,-8.64453 l -8.14258,-7.6543 c -2.26187,3.24438 -5.68951,5.20117 -9.99414,5.20117 -7.57021,0 -12.8789,-5.59033 -12.8789,-13.83203 0,-8.24877 5.30869,-13.74805 12.8789,-13.74805 4.30463,0 7.73227,1.77432 9.99414,5.10352 l 8.14258,-7.64844 c -3.13127,-4.31876 -9.0271,-8.54492 -18.74609,-8.54492 z m 188.513666,0 c -14.32756,0 -24.54102,11.08994 -24.54102,24.83789 0,15.2111 10.89893,24.92969 25.31836,24.92969 7.36524,0 14.82253,-2.26252 19.53711,-6.57422 l -5.59765,-8.25586 c -3.03939,2.9475 -8.52453,4.60937 -12.56055,4.60937 -8.04379,0 -12.75243,-4.80719 -13.62891,-10.58203 l 35.22266,0 0,-2.95312 c 0,-15.40903 -9.5214,-26.01172 -23.75,-26.01172 z m -107.24805,1.17187 0,33.66797 c 0,9.2242 4.89104,14.92774 15.30274,14.92774 7.75398,0 13.44359,-3.63965 16.6738297,-7.17383 l 0,5.98633 12.47656,0 0,-47.40821 -12.47656,0 0,32.10547 c -2.1558497,2.74253 -5.9857497,5.39258 -10.7851597,5.39258 -5.30128,0 -8.73633,-2.15494 -8.73633,-8.72851 l 0,-28.76954 -12.45508,0 z m 107.24805,9.04102 c 8.2417,0 11.38664,5.59074 11.77539,10.10742 l -23.35352,0 c 0.49479,-4.7146 3.8312,-10.10742 11.57813,-10.10742 z"
       style="fill:#000000;fill-opacity:1;fill-rule:nonzero;stroke:none" />
  </g>
</svg>
